<svg width="37" height="37" viewBox="0 0 37 37" fill="none" xmlns="http://www.w3.org/2000/svg">
<path d="M18.5 1L18.5 36" stroke="#BCBFB1"/>
<circle cx="18.5" cy="18.5" r="17.3519" stroke="#BCBFB1"/>
<path d="M18.5 35.8518C21.2778 35.8518 23.679 33.7685 25.3566 30.6531C27.045 27.5173 28.0741 23.2197 28.0741 18.5C28.0741 13.7803 27.045 9.48262 25.3566 6.34688C23.679 3.23149 21.2778 1.14813 18.5 1.14813C15.7222 1.14813 13.3209 3.23149 11.6434 6.34688C9.95492 9.48262 8.9259 13.7803 8.9259 18.5C8.9259 23.2197 9.95492 27.5173 11.6434 30.6531C13.3209 33.7685 15.7222 35.8518 18.5 35.8518Z" stroke="#BCBFB1"/>
<path d="M1 18.5H36" stroke="#BCBFB1"/>
<path d="M3.59259 10.0741H33.4074" stroke="#BCBFB1"/>
<path d="M3.59259 26.9259H33.4074" stroke="#BCBFB1"/>
</svg>
